# xmcd
#
# Track frame offsets:
#	183
#	14698
#	31970
#	45658
#	59383
#	75470
#	102920
#	119083
#	133070
#	144770
#	165358
#	178295
#	198058
#	212345
#	226745
#	241820
#	261245
#	272833
#
# Disc length: 3849 seconds
#
# Revision: 3
# Processed by: cddbd v1.5.2PL0 Copyright (c) Steve Scherf et al.
# Submitted via: EasyCDDAExtractor 16.0.6.1
#
DISCID=f20f0712
DTITLE=Jerry Lee Lewis - R-006 You Win Again (The Country Side of)
DYEAR=1900
DGENRE=Country
TTITLE0=What Made Milwaukee Famous
TTITLE1=I Can't Stop Loving You
TTITLE2=Another Time Another Place
TTITLE3=Will The Circle Be Unbroken
TTITLE4=Middle Age Crazy
TTITLE5=Mexicali Rose
TTITLE6=She Even Woke Me Up To Say Goodbye
TTITLE7=Touching Home
TTITLE8=Your Cheatin' Heart
TTITLE9=You Are My Sunshine
TTITLE10=Hey Good Lookin'
TTITLE11=Thirty Nine And Holding
TTITLE12=Bottles And Barstools
TTITLE13=Careless Hands
TTITLE14=Cold Cold Heart
TTITLE15=There Must Be More To Love Than This
TTITLE16=I'll Find In Where I Can
TTITLE17=You Win Again
EXTD=
EXTT0=
EXTT1=
EXTT2=
EXTT3=
EXTT4=
EXTT5=
EXTT6=
EXTT7=
EXTT8=
EXTT9=
EXTT10=
EXTT11=
EXTT12=
EXTT13=
EXTT14=
EXTT15=
EXTT16=
EXTT17=
PLAYORDER=
